<?xml version="1.0" encoding="UTF-8" standalone="no"?>
<!-- Created with Inkscape (http://www.inkscape.org/) -->

<svg
   width="2400"
   height="2400"
   viewBox="0 0 661.45831 661.45832"
   version="1.1"
   id="svg5"
   sodipodi:docname="Chart_ver2.svg"
   inkscape:version="1.2.2 (732a01da63, 2022-12-09)"
   inkscape:export-filename="chart_four.svg"
   inkscape:export-xdpi="300"
   inkscape:export-ydpi="300"
   xml:space="preserve"
   xmlns:inkscape="http://www.inkscape.org/namespaces/inkscape"
   xmlns:sodipodi="http://sodipodi.sourceforge.net/DTD/sodipodi-0.dtd"
   xmlns:xlink="http://www.w3.org/1999/xlink"
   xmlns="http://www.w3.org/2000/svg"
   xmlns:svg="http://www.w3.org/2000/svg"><sodipodi:namedview
     id="namedview7"
     pagecolor="#ffffff"
     bordercolor="#000000"
     borderopacity="0.25"
     inkscape:showpageshadow="2"
     inkscape:pageopacity="0.0"
     inkscape:pagecheckerboard="true"
     inkscape:deskcolor="#d1d1d1"
     inkscape:document-units="mm"
     showgrid="false"
     inkscape:lockguides="false"
     showguides="true"
     inkscape:zoom="0.4436"
     inkscape:cx="1324.3913"
     inkscape:cy="1163.2101"
     inkscape:window-width="2560"
     inkscape:window-height="1346"
     inkscape:window-x="-11"
     inkscape:window-y="-11"
     inkscape:window-maximized="1"
     inkscape:current-layer="layer9"><sodipodi:guide
       position="330.72916,672.09177"
       orientation="-1,0"
       id="guide256"
       inkscape:locked="false"
       inkscape:label=""
       inkscape:color="rgb(0,134,229)" /><sodipodi:guide
       position="330.72916,330.72916"
       orientation="0,1"
       id="guide308"
       inkscape:locked="false"
       inkscape:label=""
       inkscape:color="rgb(0,134,229)" /></sodipodi:namedview><defs
     id="defs2"><marker
       style="overflow:visible"
       id="marker2729"
       refX="0"
       refY="0"
       orient="auto"
       inkscape:stockid="Diamond"
       markerWidth="7.2124891"
       markerHeight="7.2124891"
       viewBox="0 0 7.2124892 7.2124892"
       inkscape:isstock="true"
       inkscape:collect="always"
       preserveAspectRatio="xMidYMid"><path
         transform="scale(0.45)"
         style="fill:context-stroke;fill-rule:evenodd;stroke:context-stroke;stroke-width:1pt"
         d="M 0,-7.0710768 -7.0710894,0 0,7.0710589 7.0710462,0 Z"
         id="path2727" /></marker><marker
       style="overflow:visible"
       id="Diamond"
       refX="0"
       refY="0"
       orient="auto"
       inkscape:stockid="Diamond"
       markerWidth="7.2124891"
       markerHeight="7.2124891"
       viewBox="0 0 7.2124892 7.2124892"
       inkscape:isstock="true"
       inkscape:collect="always"
       preserveAspectRatio="xMidYMid"><path
         transform="scale(0.45)"
         style="fill:context-stroke;fill-rule:evenodd;stroke:context-stroke;stroke-width:1pt"
         d="M 0,-7.0710768 -7.0710894,0 0,7.0710589 7.0710462,0 Z"
         id="Diamond1" /></marker><marker
       style="overflow:visible"
       id="marker2599"
       refX="0"
       refY="0"
       orient="auto"
       inkscape:stockid="Square"
       markerWidth="6"
       markerHeight="6"
       viewBox="0 0 6 6"
       inkscape:isstock="true"
       inkscape:collect="always"
       preserveAspectRatio="xMidYMid"><path
         transform="scale(0.5)"
         style="fill:context-fill;fill-rule:evenodd;stroke:context-stroke;stroke-width:2"
         d="M -5,-5 V 5 H 5 V -5 Z"
         id="path2597" /></marker><marker
       style="overflow:visible"
       id="marker9949"
       refX="0"
       refY="0"
       orient="auto"
       inkscape:stockid="Square"
       markerWidth="6"
       markerHeight="6"
       viewBox="0 0 6 6"
       inkscape:isstock="true"
       inkscape:collect="always"
       preserveAspectRatio="xMidYMid"><path
         transform="scale(0.5)"
         style="fill:context-fill;fill-rule:evenodd;stroke:context-stroke;stroke-width:2"
         d="M -5,-5 V 5 H 5 V -5 Z"
         id="path9947" /></marker><inkscape:path-effect
       effect="copy_rotate"
       starting_point="364.27591,264.41572"
       origin="264.27591,264.41572"
       id="path-effect3641"
       is_visible="true"
       lpeversion="1.2"
       lpesatellites=""
       method="normal"
       num_copies="27"
       starting_angle="0"
       rotation_angle="13.333333"
       gap="-0.01"
       copies_to_360="true"
       mirror_copies="false"
       split_items="false"
       link_styles="false" /><inkscape:path-effect
       effect="copy_rotate"
       starting_point="375.29615,284.76021"
       origin="275.29615,284.76021"
       id="path-effect3544"
       is_visible="true"
       lpeversion="1.2"
       lpesatellites=""
       method="normal"
       num_copies="108"
       starting_angle="0"
       rotation_angle="3.3333333"
       gap="-0.01"
       copies_to_360="true"
       mirror_copies="false"
       split_items="false"
       link_styles="false" /></defs><g
     inkscape:label="Layer 1"
     inkscape:groupmode="layer"
     id="layer1"
     style="display:inline"
     transform="translate(53.206432,52.606587)"><circle
       style="display:none;fill:none;stroke:#1a1a1a;stroke-width:0.458716;stroke-dasharray:none;stroke-opacity:1"
       id="circle1196"
       cx="-295.39059"
       cy="259.16824"
       r="224.77065"
       transform="rotate(-93.915638)"
       inkscape:label="Ring2" /><ellipse
       style="display:none;fill:none;stroke:#1a1a1a;stroke-width:0.479104;stroke-dasharray:none;stroke-opacity:1"
       id="circle1492"
       cx="-315.11188"
       cy="235.39066"
       rx="234.76205"
       ry="234.76045"
       transform="rotate(-98.248358)"
       inkscape:label="RingText" /><circle
       style="display:none;fill:#ffccaa;stroke:#1a1a1a;stroke-width:0.647299;stroke-dasharray:none;stroke-opacity:1"
       id="circle2707"
       cx="277.11438"
       cy="277.50272"
       r="317.17636"
       inkscape:label="FillOuter"
       sodipodi:insensitive="true" /><g
       inkscape:groupmode="layer"
       id="layer4"
       inkscape:label="GroupNakshatra"
       style="display:none"><path
         style="display:inline;fill:#000000;fill-opacity:1;stroke:#1a1a1a;stroke-width:0;stroke-dasharray:none;stroke-opacity:1"
         id="path2816"
         inkscape:path-effect="#path-effect3544"
         sodipodi:type="arc"
         sodipodi:cx="278.02066"
         sodipodi:cy="25.459711"
         sodipodi:rx="3.9606509"
         sodipodi:ry="3.9606509"
         d="m 281.98131,25.459711 c 0,2.187407 -1.77324,3.960651 -3.96065,3.960651 -2.18741,0 -3.96065,-1.773244 -3.96065,-3.960651 0,-2.187407 1.77324,-3.960651 3.96065,-3.960651 2.18741,0 3.96065,1.773244 3.96065,3.960651 z m -15.08829,0.04999 c 0.12718,2.183706 -1.53995,4.057055 -3.72366,4.184241 -2.18371,0.127187 -4.05706,-1.539952 -4.18424,-3.723658 -0.12719,-2.183707 1.53995,-4.057055 3.72366,-4.184242 2.1837,-0.127186 4.05705,1.539953 4.18424,3.723659 z m -15.05986,0.927209 c 0.25394,2.172617 -1.30145,4.139732 -3.47407,4.393674 -2.17262,0.253943 -4.13973,-1.30145 -4.39367,-3.474067 -0.25395,-2.172616 1.30145,-4.139731 3.47406,-4.393673 2.17262,-0.253943 4.13974,1.30145 4.39368,3.474066 z m -14.98047,1.801294 c 0.37984,2.154176 -1.05854,4.208401 -3.21272,4.58824 -2.15418,0.379839 -4.2084,-1.058545 -4.58824,-3.21272 -0.37984,-2.154176 1.05854,-4.2084 3.21272,-4.58824 2.15418,-0.379839 4.2084,1.058545 4.58824,3.21272 z m -14.85039,2.669283 c 0.50445,2.128446 -0.81206,4.26283 -2.9405,4.76728 -2.12845,0.504451 -4.26283,-0.812057 -4.76728,-2.940502 -0.50445,-2.128445 0.81206,-4.262829 2.9405,-4.76728 2.12845,-0.504451 4.26283,0.812057 4.76728,2.940502 z m -14.67006,3.528241 c 0.62736,2.095513 -0.56282,4.302834 -2.65833,4.930189 -2.09551,0.627356 -4.30284,-0.562821 -4.93019,-2.658334 -0.62736,-2.095513 0.56282,-4.302835 2.65833,-4.93019 2.09552,-0.627355 4.30284,0.562822 4.93019,2.658335 z m -14.44009,4.375259 c 0.74814,2.05549 -0.31168,4.328279 -2.36717,5.076417 -2.05549,0.748137 -4.32828,-0.311682 -5.07642,-2.367172 -0.74813,-2.055491 0.31169,-4.32828 2.36718,-5.076417 2.05549,-0.748138 4.32828,0.311681 5.07641,2.367172 z m -14.16126,5.207473 c 0.86639,2.008513 -0.0595,4.33908 -2.068,5.205467 -2.00851,0.866388 -4.33908,-0.05949 -5.20547,-2.067999 -0.86638,-2.008513 0.0595,-4.33908 2.068,-5.205468 2.00852,-0.866387 4.33908,0.05949 5.20547,2.068 z m -13.83451,6.022068 c 0.9817,1.954738 0.19291,4.335197 -1.76183,5.316903 -1.95474,0.981707 -4.3352,0.192909 -5.31691,-1.76183 -0.9817,-1.954738 -0.19291,-4.335197 1.76183,-5.316903 1.95474,-0.981707 4.3352,-0.192909 5.31691,1.76183 z m -13.46096,6.816284 c 1.0937,1.89435 0.44465,4.316646 -1.4497,5.41035 -1.89435,1.093703 -4.31665,0.444651 -5.41035,-1.449699 -1.0937,-1.89435 -0.44465,-4.316646 1.4497,-5.41035 1.89435,-1.093703 4.31665,-0.444651 5.41035,1.449699 z m -13.04185,7.587437 c 1.202,1.827552 0.69489,4.283489 -1.13266,5.485489 -1.82756,1.202 -4.28349,0.69489 -5.48549,-1.132662 -1.202,-1.827552 -0.69489,-4.283489 1.13266,-5.485489 1.82755,-1.202 4.28349,-0.694889 5.48549,1.132662 z m -12.57862,8.332917 c 1.30623,1.75457 0.94278,4.235838 -0.81179,5.542067 -1.75457,1.306229 -4.23584,0.942777 -5.54207,-0.811793 -1.30623,-1.75457 -0.94277,-4.235838 0.8118,-5.542067 1.75457,-1.306229 4.23583,-0.942777 5.54206,0.811793 z m -12.07282,9.050201 c 1.40604,1.675651 1.18748,4.173854 -0.48817,5.579892 -1.67566,1.406038 -4.17386,1.187474 -5.5799,-0.488177 -1.40603,-1.675652 -1.18747,-4.173854 0.48818,-5.579892 1.67565,-1.406039 4.17385,-1.187474 5.57989,0.488177 z m -11.52617,9.736861 c 1.50109,1.591062 1.42815,4.097747 -0.16291,5.598836 -1.59106,1.50109 -4.097745,1.428153 -5.598835,-0.162909 -1.50109,-1.591062 -1.428153,-4.097747 0.162909,-5.598837 1.591063,-1.50109 4.097746,-1.428152 5.598836,0.16291 z M 91.275438,101.9548 c 1.591062,1.50109 1.663999,4.00778 0.162909,5.59884 -1.501089,1.59106 -4.007774,1.664 -5.598836,0.16291 -1.591063,-1.50109 -1.664,-4.00778 -0.16291,-5.59884 1.50109,-1.59106 4.007775,-1.664 5.598837,-0.16291 z m -10.317855,11.00913 c 1.675651,1.40604 1.894215,3.90424 0.488177,5.57989 -1.406038,1.67565 -3.904241,1.89422 -5.579892,0.48818 -1.675651,-1.40604 -1.894216,-3.90424 -0.488177,-5.57989 1.406038,-1.67565 3.904241,-1.89422 5.579892,-0.48818 z m -9.660276,11.59044 c 1.75457,1.30623 2.118023,3.78749 0.811794,5.54206 -1.306229,1.75457 -3.787497,2.11803 -5.542067,0.8118 -1.75457,-1.30623 -2.118022,-3.7875 -0.811793,-5.54207 1.306229,-1.75457 3.787496,-2.11802 5.542066,-0.81179 z M 62.3273,136.68689 c 1.827552,1.202 2.334662,3.65793 1.132662,5.48549 -1.202,1.82755 -3.657937,2.33466 -5.485489,1.13266 -1.827552,-1.202 -2.334662,-3.65794 -1.132662,-5.48549 1.202,-1.82755 3.657937,-2.33466 5.485489,-1.13266 z m -8.249389,12.63355 c 1.89435,1.0937 2.543403,3.516 1.449699,5.41035 -1.093703,1.89435 -3.515999,2.5434 -5.41035,1.4497 -1.89435,-1.0937 -2.543402,-3.516 -1.449698,-5.41035 1.093703,-1.89435 3.515999,-2.5434 5.410349,-1.4497 z m -7.500856,13.09184 c 1.954739,0.98171 2.743537,3.36217 1.76183,5.3169 -0.981706,1.95474 -3.362165,2.74354 -5.316903,1.76183 -1.954739,-0.9817 -2.743537,-3.36216 -1.76183,-5.3169 0.981706,-1.95474 3.362165,-2.74354 5.316903,-1.76183 z m -6.726943,13.50583 c 2.008513,0.86638 2.934388,3.19695 2.068,5.20546 -0.866387,2.00852 -3.196954,2.93439 -5.205467,2.068 -2.008512,-0.86638 -2.934387,-3.19695 -2.068,-5.20546 0.866388,-2.00852 3.196955,-2.93439 5.205467,-2.068 z m -5.930268,13.87411 c 2.055491,0.74814 3.11531,3.02093 2.367172,5.07642 -0.748137,2.05549 -3.020926,3.11531 -5.076416,2.36717 -2.055491,-0.74814 -3.11531,-3.02093 -2.367172,-5.07642 0.748137,-2.05549 3.020926,-3.11531 5.076416,-2.36717 z m -5.113527,14.19545 c 2.095513,0.62736 3.28569,2.83468 2.658335,4.93019 -0.627356,2.09552 -2.834677,3.28569 -4.93019,2.65834 -2.095513,-0.62736 -3.28569,-2.83468 -2.658334,-4.93019 0.627355,-2.09551 2.834676,-3.28569 4.930189,-2.65834 z m -4.279483,14.46877 c 2.128445,0.50445 3.444953,2.63883 2.940502,4.76728 -0.504451,2.12844 -2.638835,3.44495 -4.76728,2.9405 -2.128445,-0.50445 -3.444953,-2.63883 -2.940502,-4.76728 0.504451,-2.12845 2.638835,-3.44495 4.76728,-2.9405 z m -3.43096,14.69311 c 2.154176,0.37984 3.59256,2.43407 3.21272,4.58824 -0.379839,2.15418 -2.434064,3.59256 -4.588239,3.21272 -2.154176,-0.37984 -3.592559,-2.43406 -3.21272,-4.58824 0.379839,-2.15417 2.434064,-3.59256 4.588239,-3.21272 z m -2.570826,14.86775 c 2.172617,0.25394 3.72801,2.22106 3.474067,4.39367 -0.253942,2.17262 -2.221057,3.72801 -4.393674,3.47407 -2.172617,-0.25394 -3.728009,-2.22106 -3.474067,-4.39367 0.253943,-2.17262 2.221058,-3.72801 4.393674,-3.47407 z m -1.701994,14.99208 c 2.183706,0.12718 3.850845,2.00053 3.723659,4.18424 -0.127187,2.1837 -2.000535,3.85084 -4.184242,3.72366 -2.183706,-0.12719 -3.850845,-2.00054 -3.723658,-4.18425 0.127186,-2.1837 2.000535,-3.85084 4.184241,-3.72365 z m -0.827403,15.06567 c 2.187407,0 3.960651,1.77324 3.960651,3.96065 0,2.18741 -1.773244,3.96065 -3.960651,3.96065 -2.187407,0 -3.960651,-1.77324 -3.960651,-3.96065 0,-2.18741 1.773244,-3.96065 3.960651,-3.96065 z m 0.04999,15.08829 c 2.183706,-0.12718 4.057055,1.53995 4.184241,3.72366 0.127187,2.18371 -1.539952,4.05706 -3.723658,4.18424 -2.183707,0.12719 -4.057055,-1.53995 -4.184242,-3.72366 -0.127186,-2.1837 1.539953,-4.05705 3.723659,-4.18424 z m 0.927209,15.05986 c 2.172617,-0.25394 4.139732,1.30145 4.393674,3.47407 0.253943,2.17262 -1.30145,4.13973 -3.474067,4.39367 -2.172616,0.25395 -4.139731,-1.30145 -4.393673,-3.47406 -0.253943,-2.17262 1.30145,-4.13974 3.474066,-4.39368 z m 1.801294,14.98047 c 2.154176,-0.37984 4.208401,1.05854 4.58824,3.21272 0.379839,2.15418 -1.058545,4.2084 -3.21272,4.58824 -2.154176,0.37984 -4.2084,-1.05854 -4.58824,-3.21272 -0.379839,-2.15418 1.058545,-4.2084 3.21272,-4.58824 z m 2.669283,14.85039 c 2.128446,-0.50445 4.26283,0.81206 4.76728,2.9405 0.504451,2.12845 -0.812057,4.26283 -2.940502,4.76728 -2.128445,0.50445 -4.262829,-0.81206 -4.76728,-2.9405 -0.504451,-2.12845 0.812057,-4.26283 2.940502,-4.76728 z m 3.528241,14.67006 c 2.095513,-0.62736 4.302834,0.56282 4.930189,2.65833 0.627356,2.09551 -0.562821,4.30284 -2.658334,4.93019 -2.095513,0.62736 -4.302835,-0.56282 -4.93019,-2.65833 -0.627355,-2.09552 0.562822,-4.30284 2.658335,-4.93019 z m 4.375259,14.44009 c 2.05549,-0.74814 4.328279,0.31168 5.076417,2.36717 0.748137,2.05549 -0.311682,4.32828 -2.367172,5.07642 -2.055491,0.74813 -4.32828,-0.31169 -5.076417,-2.36718 -0.748138,-2.05549 0.311681,-4.32828 2.367172,-5.07641 z m 5.207473,14.16126 c 2.008513,-0.86639 4.33908,0.0595 5.205467,2.068 0.866388,2.00851 -0.05949,4.33908 -2.067999,5.20547 -2.008513,0.86638 -4.33908,-0.0595 -5.205468,-2.068 -0.866387,-2.00852 0.05949,-4.33908 2.068,-5.20547 z m 6.022068,13.83451 c 1.954738,-0.9817 4.335197,-0.19291 5.316903,1.76183 0.981707,1.95474 0.192909,4.3352 -1.76183,5.31691 -1.954738,0.9817 -4.335197,0.19291 -5.316903,-1.76183 -0.981707,-1.95474 -0.192909,-4.3352 1.76183,-5.31691 z m 6.816284,13.46096 c 1.89435,-1.0937 4.316646,-0.44465 5.41035,1.4497 1.093703,1.89435 0.444651,4.31665 -1.449699,5.41035 -1.89435,1.0937 -4.316646,0.44465 -5.41035,-1.4497 -1.093703,-1.89435 -0.444651,-4.31665 1.449699,-5.41035 z m 7.587437,13.04185 c 1.827552,-1.202 4.283489,-0.69489 5.485489,1.13266 1.202,1.82756 0.69489,4.28349 -1.132662,5.48549 -1.827552,1.202 -4.283489,0.69489 -5.485489,-1.13266 -1.202,-1.82755 -0.694889,-4.28349 1.132662,-5.48549 z m 8.332917,12.57862 c 1.75457,-1.30623 4.235838,-0.94278 5.542067,0.81179 1.306229,1.75457 0.942777,4.23584 -0.811793,5.54207 -1.75457,1.30623 -4.235838,0.94277 -5.542067,-0.8118 -1.306229,-1.75457 -0.942777,-4.23583 0.811793,-5.54206 z m 9.050201,12.07282 c 1.675651,-1.40604 4.173854,-1.18748 5.579892,0.48817 1.406038,1.67566 1.187474,4.17386 -0.488177,5.5799 -1.675652,1.40603 -4.173854,1.18747 -5.579892,-0.48818 -1.406039,-1.67565 -1.187474,-4.17385 0.488177,-5.57989 z m 9.736861,11.52617 c 1.591062,-1.50109 4.097747,-1.42815 5.598836,0.16291 1.50109,1.59106 1.428153,4.09775 -0.162909,5.59884 -1.591062,1.50108 -4.097747,1.42815 -5.598837,-0.16291 -1.50109,-1.59107 -1.428152,-4.09775 0.16291,-5.59884 z m 10.390575,10.94052 c 1.50109,-1.59106 4.007774,-1.664 5.598836,-0.16291 1.591063,1.50109 1.664,4.00778 0.16291,5.59884 -1.50109,1.59106 -4.007774,1.664 -5.598837,0.16291 -1.591062,-1.50109 -1.663999,-4.00778 -0.162909,-5.59884 z m 11.009129,10.31786 c 1.40604,-1.67565 3.90424,-1.89422 5.57989,-0.48818 1.67565,1.40604 1.89422,3.90424 0.48818,5.57989 -1.40604,1.67565 -3.90424,1.89422 -5.57989,0.48818 -1.67565,-1.40604 -1.89422,-3.90424 -0.48818,-5.57989 z m 11.59044,9.66027 c 1.30623,-1.75457 3.78749,-2.11802 5.54206,-0.81179 1.75457,1.30623 2.11803,3.7875 0.8118,5.54207 -1.30623,1.75457 -3.7875,2.11802 -5.54207,0.81179 -1.75457,-1.30623 -2.11802,-3.7875 -0.81179,-5.54207 z m 12.13252,8.97001 c 1.202,-1.82755 3.65793,-2.33466 5.48549,-1.13266 1.82755,1.202 2.33466,3.65793 1.13266,5.48549 -1.202,1.82755 -3.65794,2.33466 -5.48549,1.13266 -1.82755,-1.202 -2.33466,-3.65794 -1.13266,-5.48549 z m 12.63355,8.24939 c 1.0937,-1.89435 3.516,-2.5434 5.41035,-1.4497 1.89435,1.0937 2.5434,3.516 1.4497,5.41035 -1.0937,1.89435 -3.516,2.5434 -5.41035,1.4497 -1.89435,-1.09371 -2.5434,-3.516 -1.4497,-5.41035 z m 13.09184,7.50085 c 0.98171,-1.95473 3.36217,-2.74353 5.3169,-1.76183 1.95474,0.98171 2.74354,3.36217 1.76183,5.31691 -0.9817,1.95474 -3.36216,2.74353 -5.3169,1.76183 -1.95474,-0.98171 -2.74354,-3.36217 -1.76183,-5.31691 z m 13.50583,6.72695 c 0.86638,-2.00851 3.19695,-2.93439 5.20546,-2.068 2.00852,0.86639 2.93439,3.19695 2.068,5.20546 -0.86638,2.00852 -3.19695,2.93439 -5.20546,2.068 -2.00852,-0.86638 -2.93439,-3.19695 -2.068,-5.20546 z m 13.87411,5.93027 c 0.74814,-2.05549 3.02093,-3.11531 5.07642,-2.36718 2.05549,0.74814 3.11531,3.02093 2.36717,5.07642 -0.74814,2.05549 -3.02093,3.11531 -5.07642,2.36717 -2.05549,-0.74813 -3.11531,-3.02092 -2.36717,-5.07641 z m 14.19545,5.11352 c 0.62736,-2.09551 2.83468,-3.28569 4.93019,-2.65833 2.09552,0.62735 3.28569,2.83467 2.65834,4.93019 -0.62736,2.09551 -2.83468,3.28569 -4.93019,2.65833 -2.09551,-0.62735 -3.28569,-2.83467 -2.65834,-4.93019 z m 14.46877,4.27949 c 0.50445,-2.12845 2.63883,-3.44496 4.76728,-2.94051 2.12844,0.50445 3.44495,2.63884 2.9405,4.76728 -0.50445,2.12845 -2.63883,3.44496 -4.76728,2.94051 -2.12845,-0.50445 -3.44495,-2.63884 -2.9405,-4.76728 z m 14.69311,3.43096 c 0.37984,-2.15418 2.43407,-3.59256 4.58824,-3.21272 2.15418,0.37983 3.59256,2.43406 3.21272,4.58824 -0.37984,2.15417 -2.43406,3.59255 -4.58824,3.21272 -2.15417,-0.37984 -3.59256,-2.43407 -3.21272,-4.58824 z m 14.86775,2.57082 c 0.25394,-2.17261 2.22106,-3.72801 4.39367,-3.47407 2.17262,0.25395 3.72801,2.22106 3.47407,4.39368 -0.25394,2.17262 -2.22106,3.72801 -4.39367,3.47407 -2.17262,-0.25395 -3.72801,-2.22106 -3.47407,-4.39368 z m 14.99208,1.702 c 0.12718,-2.18371 2.00053,-3.85085 4.18424,-3.72366 2.1837,0.12718 3.85084,2.00053 3.72366,4.18424 -0.12719,2.18371 -2.00054,3.85084 -4.18425,3.72366 -2.1837,-0.12719 -3.85084,-2.00054 -3.72365,-4.18424 z m 15.06567,0.8274 c 0,-2.18741 1.77324,-3.96065 3.96065,-3.96065 2.18741,0 3.96065,1.77324 3.96065,3.96065 0,2.18741 -1.77324,3.96065 -3.96065,3.96065 -2.18741,0 -3.96065,-1.77324 -3.96065,-3.96065 z m 15.08829,-0.05 c -0.12718,-2.18371 1.53995,-4.05705 3.72366,-4.18424 2.18371,-0.12719 4.05706,1.53995 4.18424,3.72366 0.12719,2.1837 -1.53995,4.05705 -3.72366,4.18424 -2.1837,0.12719 -4.05705,-1.53995 -4.18424,-3.72366 z m 15.05986,-0.92721 c -0.25394,-2.17262 1.30145,-4.13973 3.47407,-4.39367 2.17262,-0.25394 4.13973,1.30145 4.39367,3.47406 0.25395,2.17262 -1.30145,4.13974 -3.47406,4.39368 -2.17262,0.25394 -4.13974,-1.30145 -4.39368,-3.47407 z m 14.98047,-1.80129 c -0.37984,-2.15418 1.05854,-4.2084 3.21272,-4.58824 2.15418,-0.37984 4.2084,1.05854 4.58824,3.21272 0.37984,2.15417 -1.05854,4.2084 -3.21272,4.58824 -2.15418,0.37984 -4.2084,-1.05855 -4.58824,-3.21272 z M 328.59,538.61293 c -0.50445,-2.12844 0.81206,-4.26282 2.9405,-4.76728 2.12845,-0.50445 4.26283,0.81206 4.76728,2.94051 0.50445,2.12844 -0.81206,4.26283 -2.9405,4.76728 -2.12845,0.50445 -4.26283,-0.81206 -4.76728,-2.94051 z m 14.67006,-3.52824 c -0.62736,-2.09551 0.56282,-4.30283 2.65833,-4.93019 2.09551,-0.62735 4.30284,0.56283 4.93019,2.65834 0.62736,2.09551 -0.56282,4.30283 -2.65833,4.93019 -2.09552,0.62735 -4.30284,-0.56282 -4.93019,-2.65834 z m 14.44009,-4.37525 c -0.74814,-2.0555 0.31168,-4.32828 2.36717,-5.07642 2.05549,-0.74814 4.32828,0.31168 5.07642,2.36717 0.74813,2.05549 -0.31169,4.32828 -2.36718,5.07642 -2.05549,0.74813 -4.32828,-0.31168 -5.07641,-2.36717 z m 14.16126,-5.20748 c -0.86639,-2.00851 0.0595,-4.33908 2.068,-5.20547 2.00851,-0.86638 4.33908,0.0595 5.20547,2.068 0.86638,2.00852 -0.0595,4.33908 -2.068,5.20547 -2.00852,0.86639 -4.33908,-0.0595 -5.20547,-2.068 z m 13.83451,-6.02207 c -0.9817,-1.95473 -0.19291,-4.33519 1.76183,-5.3169 1.95474,-0.98171 4.3352,-0.19291 5.31691,1.76183 0.9817,1.95474 0.19291,4.3352 -1.76183,5.3169 -1.95474,0.98171 -4.3352,0.19291 -5.31691,-1.76183 z m 13.46096,-6.81628 c -1.0937,-1.89435 -0.44465,-4.31665 1.4497,-5.41035 1.89435,-1.0937 4.31665,-0.44465 5.41035,1.4497 1.0937,1.89435 0.44465,4.31665 -1.4497,5.41035 -1.89435,1.0937 -4.31665,0.44465 -5.41035,-1.4497 z m 13.04185,-7.58744 c -1.202,-1.82755 -0.69489,-4.28349 1.13266,-5.48549 1.82756,-1.202 4.28349,-0.69489 5.48549,1.13267 1.202,1.82755 0.69489,4.28348 -1.13266,5.48548 -1.82755,1.202 -4.28349,0.69489 -5.48549,-1.13266 z m 12.57862,-8.33291 c -1.30623,-1.75457 -0.94278,-4.23584 0.81179,-5.54207 1.75457,-1.30623 4.23584,-0.94278 5.54207,0.81179 1.30623,1.75457 0.94277,4.23584 -0.8118,5.54207 -1.75457,1.30623 -4.23583,0.94278 -5.54206,-0.81179 z m 12.07282,-9.0502 c -1.40604,-1.67566 -1.18748,-4.17386 0.48817,-5.5799 1.67566,-1.40603 4.17386,-1.18747 5.5799,0.48818 1.40603,1.67565 1.18747,4.17385 -0.48818,5.57989 -1.67565,1.40604 -4.17385,1.18748 -5.57989,-0.48817 z m 11.52617,-9.73687 c -1.50109,-1.59106 -1.42815,-4.09774 0.16291,-5.59883 1.59106,-1.50109 4.09775,-1.42816 5.59884,0.16291 1.50108,1.59106 1.42815,4.09774 -0.16291,5.59883 -1.59107,1.50109 -4.09775,1.42816 -5.59884,-0.16291 z m 10.94052,-10.39057 c -1.59106,-1.50109 -1.664,-4.00778 -0.16291,-5.59884 1.50109,-1.59106 4.00778,-1.664 5.59884,-0.16291 1.59106,1.50109 1.664,4.00778 0.16291,5.59884 -1.50109,1.59106 -4.00778,1.664 -5.59884,0.16291 z m 10.31786,-11.00913 c -1.67565,-1.40604 -1.89422,-3.90424 -0.48818,-5.57989 1.40604,-1.67565 3.90424,-1.89422 5.57989,-0.48818 1.67565,1.40604 1.89422,3.90424 0.48818,5.57989 -1.40604,1.67565 -3.90424,1.89422 -5.57989,0.48818 z m 9.66027,-11.59044 c -1.75457,-1.30623 -2.11802,-3.78749 -0.81179,-5.54206 1.30623,-1.75457 3.7875,-2.11803 5.54207,-0.8118 1.75457,1.30623 2.11802,3.7875 0.81179,5.54207 -1.30623,1.75457 -3.7875,2.11802 -5.54207,0.81179 z m 8.97001,-12.13252 c -1.82755,-1.202 -2.33466,-3.65793 -1.13266,-5.48549 1.202,-1.82755 3.65793,-2.33466 5.48549,-1.13266 1.82755,1.202 2.33466,3.65794 1.13266,5.48549 -1.202,1.82755 -3.65794,2.33466 -5.48549,1.13266 z m 8.24939,-12.63355 c -1.89435,-1.0937 -2.5434,-3.516 -1.4497,-5.41035 1.0937,-1.89435 3.516,-2.5434 5.41035,-1.4497 1.89435,1.0937 2.5434,3.516 1.4497,5.41035 -1.09371,1.89435 -3.516,2.5434 -5.41035,1.4497 z m 7.50085,-13.09184 c -1.95473,-0.98171 -2.74353,-3.36217 -1.76183,-5.3169 0.98171,-1.95474 3.36217,-2.74354 5.31691,-1.76183 1.95474,0.9817 2.74353,3.36216 1.76183,5.3169 -0.98171,1.95474 -3.36217,2.74354 -5.31691,1.76183 z m 6.72695,-13.50583 c -2.00851,-0.86638 -2.93439,-3.19695 -2.068,-5.20546 0.86639,-2.00852 3.19695,-2.93439 5.20546,-2.068 2.00852,0.86638 2.93439,3.19695 2.068,5.20546 -0.86638,2.00852 -3.19695,2.93439 -5.20546,2.068 z m 5.93027,-13.87411 c -2.05549,-0.74814 -3.11531,-3.02093 -2.36718,-5.07642 0.74814,-2.05549 3.02093,-3.11531 5.07642,-2.36717 2.05549,0.74814 3.11531,3.02093 2.36717,5.07642 -0.74813,2.05549 -3.02092,3.11531 -5.07641,2.36717 z m 5.11352,-14.19545 c -2.09551,-0.62736 -3.28569,-2.83468 -2.65833,-4.93019 0.62735,-2.09552 2.83467,-3.28569 4.93019,-2.65834 2.09551,0.62736 3.28569,2.83468 2.65833,4.93019 -0.62735,2.09551 -2.83467,3.28569 -4.93019,2.65834 z m 4.27949,-14.46877 c -2.12845,-0.50445 -3.44496,-2.63883 -2.94051,-4.76728 0.50445,-2.12844 2.63884,-3.44495 4.76728,-2.9405 2.12845,0.50445 3.44496,2.63883 2.94051,4.76728 -0.50445,2.12845 -2.63884,3.44495 -4.76728,2.9405 z m 3.43096,-14.69311 c -2.15418,-0.37984 -3.59256,-2.43407 -3.21272,-4.58824 0.37983,-2.15418 2.43406,-3.59256 4.58824,-3.21272 2.15417,0.37984 3.59255,2.43406 3.21272,4.58824 -0.37984,2.15417 -2.43407,3.59256 -4.58824,3.21272 z m 2.57082,-14.86775 c -2.17261,-0.25394 -3.72801,-2.22106 -3.47407,-4.39367 0.25395,-2.17262 2.22106,-3.72801 4.39368,-3.47407 2.17262,0.25394 3.72801,2.22106 3.47407,4.39367 -0.25395,2.17262 -2.22106,3.72801 -4.39368,3.47407 z m 1.702,-14.99208 c -2.18371,-0.12718 -3.85085,-2.00053 -3.72366,-4.18424 0.12718,-2.1837 2.00053,-3.85084 4.18424,-3.72366 2.18371,0.12719 3.85084,2.00054 3.72366,4.18425 -0.12719,2.1837 -2.00054,3.85084 -4.18424,3.72365 z m 0.8274,-15.06567 c -2.18741,0 -3.96065,-1.77324 -3.96065,-3.96065 0,-2.18741 1.77324,-3.96065 3.96065,-3.96065 2.18741,0 3.96065,1.77324 3.96065,3.96065 0,2.18741 -1.77324,3.96065 -3.96065,3.96065 z m -0.05,-15.08829 c -2.18371,0.12718 -4.05705,-1.53995 -4.18424,-3.72366 -0.12719,-2.18371 1.53995,-4.05706 3.72366,-4.18424 2.1837,-0.12719 4.05705,1.53995 4.18424,3.72366 0.12719,2.1837 -1.53995,4.05705 -3.72366,4.18424 z m -0.92721,-15.05986 c -2.17262,0.25394 -4.13973,-1.30145 -4.39367,-3.47407 -0.25394,-2.17262 1.30145,-4.13973 3.47406,-4.39367 2.17262,-0.25395 4.13974,1.30145 4.39368,3.47406 0.25394,2.17262 -1.30145,4.13974 -3.47407,4.39368 z m -1.80129,-14.98047 c -2.15418,0.37984 -4.2084,-1.05854 -4.58824,-3.21272 -0.37984,-2.15418 1.05854,-4.2084 3.21272,-4.58824 2.15417,-0.37984 4.2084,1.05854 4.58824,3.21272 0.37984,2.15418 -1.05855,4.2084 -3.21272,4.58824 z m -2.66929,-14.85039 c -2.12844,0.50445 -4.26282,-0.81206 -4.76728,-2.9405 -0.50445,-2.12845 0.81206,-4.26283 2.94051,-4.76728 2.12844,-0.50445 4.26283,0.81206 4.76728,2.9405 0.50445,2.12845 -0.81206,4.26283 -2.94051,4.76728 z m -3.52824,-14.67006 c -2.09551,0.62736 -4.30283,-0.56282 -4.93019,-2.65833 -0.62735,-2.09551 0.56283,-4.30284 2.65834,-4.93019 2.09551,-0.62736 4.30283,0.56282 4.93019,2.65833 0.62735,2.09552 -0.56282,4.30284 -2.65834,4.93019 z m -4.37525,-14.44009 c -2.0555,0.74814 -4.32828,-0.31168 -5.07642,-2.36717 -0.74814,-2.05549 0.31168,-4.32828 2.36717,-5.07642 2.05549,-0.74813 4.32828,0.31169 5.07642,2.36718 0.74813,2.05549 -0.31168,4.32828 -2.36717,5.07641 z m -5.20748,-14.16126 c -2.00851,0.86639 -4.33908,-0.0595 -5.20547,-2.068 -0.86638,-2.00851 0.0595,-4.33908 2.068,-5.20547 2.00852,-0.86638 4.33908,0.0595 5.20547,2.068 0.86639,2.00852 -0.0595,4.33908 -2.068,5.20547 z m -6.02207,-13.83451 c -1.95473,0.9817 -4.33519,0.19291 -5.3169,-1.76183 -0.98171,-1.95474 -0.19291,-4.3352 1.76183,-5.31691 1.95474,-0.9817 4.3352,-0.19291 5.3169,1.76183 0.98171,1.95474 0.19291,4.3352 -1.76183,5.31691 z m -6.81628,-13.46096 c -1.89435,1.0937 -4.31665,0.44465 -5.41035,-1.4497 -1.0937,-1.89435 -0.44465,-4.31665 1.4497,-5.41035 1.89435,-1.0937 4.31665,-0.44465 5.41035,1.4497 1.0937,1.89435 0.44465,4.31665 -1.4497,5.41035 z m -7.58744,-13.04185 c -1.82755,1.202 -4.28349,0.69489 -5.48549,-1.13266 -1.202,-1.82756 -0.69489,-4.28349 1.13267,-5.48549 1.82755,-1.202 4.28348,-0.69489 5.48548,1.13266 1.202,1.82755 0.69489,4.28349 -1.13266,5.48549 z m -8.33291,-12.57862 c -1.75457,1.30623 -4.23584,0.94278 -5.54207,-0.81179 -1.30623,-1.75457 -0.94278,-4.23584 0.81179,-5.54207 1.75457,-1.30623 4.23584,-0.94277 5.54207,0.8118 1.30623,1.75457 0.94278,4.23583 -0.81179,5.54206 z m -9.0502,-12.07282 c -1.67566,1.40604 -4.17386,1.18748 -5.5799,-0.48817 -1.40603,-1.67566 -1.18747,-4.17386 0.48818,-5.5799 1.67565,-1.40603 4.17385,-1.18747 5.57989,0.48818 1.40604,1.67565 1.18748,4.17385 -0.48817,5.57989 z m -9.73687,-11.52617 c -1.59106,1.50109 -4.09774,1.42815 -5.59883,-0.16291 -1.50109,-1.59106 -1.42816,-4.09775 0.16291,-5.59884 1.59106,-1.50108 4.09774,-1.42815 5.59883,0.16291 1.50109,1.59107 1.42816,4.09775 -0.16291,5.59884 z M 458.10156,100.7395 c -1.50109,1.59106 -4.00778,1.664 -5.59884,0.16291 -1.59106,-1.501092 -1.664,-4.007777 -0.16291,-5.598839 1.50109,-1.591063 4.00778,-1.664 5.59884,-0.16291 1.59106,1.50109 1.664,4.007775 0.16291,5.598839 z M 447.09243,90.421643 c -1.40604,1.675651 -3.90424,1.894215 -5.57989,0.488177 -1.67565,-1.406038 -1.89422,-3.904241 -0.48818,-5.579892 1.40604,-1.675651 3.90424,-1.894216 5.57989,-0.488177 1.67565,1.406038 1.89422,3.904241 0.48818,5.579892 z m -11.59044,-9.660276 c -1.30623,1.75457 -3.78749,2.118023 -5.54206,0.811794 -1.75457,-1.306229 -2.11803,-3.787497 -0.8118,-5.542067 1.30623,-1.75457 3.7875,-2.118022 5.54207,-0.811793 1.75457,1.306229 2.11802,3.787496 0.81179,5.542066 z M 423.36947,71.79136 c -1.202,1.827552 -3.65793,2.334662 -5.48549,1.132662 -1.82755,-1.202 -2.33466,-3.657937 -1.13266,-5.485489 1.202,-1.827552 3.65794,-2.334662 5.48549,-1.132662 1.82755,1.202 2.33466,3.657937 1.13266,5.485489 z m -12.63355,-8.249389 c -1.0937,1.89435 -3.516,2.543403 -5.41035,1.449699 -1.89435,-1.093703 -2.5434,-3.515999 -1.4497,-5.41035 1.0937,-1.89435 3.516,-2.543402 5.41035,-1.449698 1.89435,1.093703 2.5434,3.515999 1.4497,5.410349 z m -13.09184,-7.500856 c -0.98171,1.954739 -3.36217,2.743537 -5.3169,1.76183 -1.95474,-0.981706 -2.74354,-3.362165 -1.76183,-5.316903 0.9817,-1.954739 3.36216,-2.743537 5.3169,-1.76183 1.95474,0.981706 2.74354,3.362165 1.76183,5.316903 z m -13.50583,-6.726943 c -0.86638,2.008513 -3.19695,2.934388 -5.20546,2.068 -2.00852,-0.866387 -2.93439,-3.196954 -2.068,-5.205467 0.86638,-2.008512 3.19695,-2.934387 5.20546,-2.068 2.00852,0.866388 2.93439,3.196955 2.068,5.205467 z m -13.87411,-5.930268 c -0.74814,2.055491 -3.02093,3.11531 -5.07642,2.367172 -2.05549,-0.748137 -3.11531,-3.020926 -2.36717,-5.076416 0.74814,-2.055491 3.02093,-3.11531 5.07642,-2.367172 2.05549,0.748137 3.11531,3.020926 2.36717,5.076416 z m -14.19545,-5.113527 c -0.62736,2.095513 -2.83468,3.28569 -4.93019,2.658335 -2.09552,-0.627356 -3.28569,-2.834677 -2.65834,-4.93019 0.62736,-2.095513 2.83468,-3.28569 4.93019,-2.658334 2.09551,0.627355 3.28569,2.834676 2.65834,4.930189 z m -14.46877,-4.279483 c -0.50445,2.128445 -2.63883,3.444953 -4.76728,2.940502 -2.12844,-0.504451 -3.44495,-2.638835 -2.9405,-4.76728 0.50445,-2.128445 2.63883,-3.444953 4.76728,-2.940502 2.12845,0.504451 3.44495,2.638835 2.9405,4.76728 z m -14.69311,-3.43096 c -0.37984,2.154176 -2.43407,3.59256 -4.58824,3.21272 -2.15418,-0.379839 -3.59256,-2.434064 -3.21272,-4.588239 0.37984,-2.154176 2.43406,-3.592559 4.58824,-3.21272 2.15417,0.379839 3.59256,2.434064 3.21272,4.588239 z m -14.86775,-2.570826 c -0.25394,2.172617 -2.22106,3.72801 -4.39367,3.474067 -2.17262,-0.253942 -3.72801,-2.221057 -3.47407,-4.393674 0.25394,-2.172617 2.22106,-3.728009 4.39367,-3.474067 2.17262,0.253943 3.72801,2.221058 3.47407,4.393674 z m -14.99208,-1.701994 c -0.12718,2.183706 -2.00053,3.850845 -4.18424,3.723659 -2.1837,-0.127187 -3.85084,-2.000535 -3.72366,-4.184242 0.12719,-2.183706 2.00054,-3.850845 4.18425,-3.723658 2.1837,0.127186 3.85084,2.000535 3.72365,4.184241 z"
         class="UnoptimicedTransforms"
         transform="matrix(1.1869313,-0.0098905,0.0098905,1.1869313,-52.031323,-58.208461)"
         inkscape:label="PaadaPath"
         sodipodi:insensitive="true" /><path
         style="display:inline;fill:none;stroke:#1a1a1a;stroke-width:0.8;stroke-dasharray:none;stroke-opacity:1"
         d="m 264.90149,509.23962 -2e-5,-244.99999 v 0 M 321.3449,502.49609 264.844,264.10011 v 0 M 374.71171,482.91759 264.7559,263.97761 v 0 M 422.1249,451.55959 264.64193,263.87873 v 0 M 461.02841,410.11262 264.50822,263.80879 v 0 M 489.32494,360.8111 264.36199,263.77158 v 0 m 241.12703,42.54129 -241.2779,-42.54378 v 0 m 244.43811,-14.21314 -244.58549,14.24551 v 0 M 498.63522,193.60013 263.9278,263.86694 v 0 M 475.98684,141.462 263.81063,263.96201 v 0 M 441.92506,95.952335 263.71854,264.08154 v 0 M 398.28618,59.524574 263.6565,264.21909 v 0 M 347.42276,34.142547 263.62785,264.36724 v 0 M 292.07688,21.174606 263.63414,264.518 v 0 M 235.23224,21.319857 263.67502,264.66324 v 0 M 179.95335,34.570469 263.7483,264.79514 v 0 M 129.22031,60.212097 263.85003,264.90659 v 0 M 85.768159,96.862396 263.97471,264.99158 v 0 M 51.939403,142.54554 264.11563,265.04552 v 0 M 29.557763,194.79873 264.26519,265.0655 v 0 M 19.829839,250.805 264.41533,265.05046 v 0 M 23.280066,307.54502 264.55795,265.0012 v 0 M 39.722441,361.95993 264.68537,264.92037 v 0 M 68.270552,411.11621 264.79071,264.81234 v 0 M 107.38536,452.36382 264.86831,264.68293 v 0 m -109.91013,218.79618 109.95578,-218.94 v 0 m -56.48961,238.24552 56.50087,-238.39599 v 0"
         id="path3638"
         sodipodi:nodetypes="ccc"
         inkscape:transform-center-x="-0.35475448"
         inkscape:transform-center-y="150.0539"
         transform="matrix(-1.2521172,-0.33550365,0.33550365,-1.2521172,520.00694,697.66038)"
         inkscape:path-effect="#path-effect3641"
         inkscape:original-d="m 264.90149,509.23962 -2e-5,-244.99999 v 0"
         class="UnoptimicedTransforms"
         inkscape:label="LinesPaada"
         sodipodi:insensitive="true" /><text
         xml:space="preserve"
         style="font-style:normal;font-variant:normal;font-weight:normal;font-stretch:normal;font-size:10.5833px;font-family:'Book Antiqua';-inkscape-font-specification:'Book Antiqua, Normal';font-variant-ligatures:normal;font-variant-caps:normal;font-variant-numeric:normal;font-variant-east-asian:normal;text-align:start;text-anchor:start;display:inline;fill:#070707;fill-opacity:1;stroke:#1a1a1a;stroke-width:0;stroke-dasharray:none;stroke-opacity:1"
         id="text1789"
         inkscape:label="TextNakshatra"
         transform="matrix(1.2247046,0.15772282,-0.15774614,1.2245235,-18.6789,-106.29905)"
         sodipodi:insensitive="true"><textPath
           xlink:href="#circle1492"
           id="textPath1791"><tspan
             id="tspan1787"
             style="font-style:normal;font-variant:normal;font-weight:normal;font-stretch:normal;font-size:10.5833px;font-family:'Book Antiqua';-inkscape-font-specification:'Book Antiqua, Normal';font-variant-ligatures:normal;font-variant-caps:normal;font-variant-numeric:normal;font-variant-east-asian:normal;stroke-width:0">      Ashwini         Revati     U.Bhdpad   P.Bhdpad  Shatabishi   Dhanishta   Shravana   U.Ashada   P.Ashada       Mula           Jyeshta      Anurada     Vishaka        Swathi         Chitra        Hastha      U.Palguni   P.Phlguni     Maagha       Aslesha       Pushya    Punarvasu     Arudra      Mrgshira      Rohini       Krithika       Bharani</tspan></textPath></text><text
         xml:space="preserve"
         style="font-style:normal;font-variant:normal;font-weight:normal;font-stretch:normal;font-size:10.5833px;font-family:'Book Antiqua';-inkscape-font-specification:'Book Antiqua, Normal';font-variant-ligatures:normal;font-variant-caps:normal;font-variant-numeric:normal;font-variant-east-asian:normal;text-align:start;text-anchor:start;display:inline;fill:#070707;fill-opacity:1;stroke:#1a1a1a;stroke-width:0;stroke-dasharray:none;stroke-opacity:1"
         id="text1332"
         inkscape:label="TextNakshatraLord"
         transform="matrix(1.1633743,0.14982444,-0.14984659,1.1632023,-3.825453,-87.045823)"><textPath
           xlink:href="#circle1492"
           id="textPath1330"><tspan
             id="tspan1328"
             style="font-style:normal;font-variant:normal;font-weight:normal;font-stretch:normal;font-size:10.5833px;font-family:'Book Antiqua';-inkscape-font-specification:'Book Antiqua, Normal';font-variant-ligatures:normal;font-variant-caps:normal;font-variant-numeric:normal;font-variant-east-asian:normal;stroke-width:0">        Ketu             Budha        Shani           Guru            Rahu            Kuja         Chandra         Ravi          Shukra         Ketu            Budha         Shani           Guru           Rahu            Kuja         Chandra          Ravi          Shukra          Ketu           Budha          Shani          Guru            Rahu           Kuja         Chandra        Ravi            Shukra</tspan></textPath></text></g><g
       inkscape:groupmode="layer"
       id="layer6"
       inkscape:label="GroupRaasi0"
       style="display:none"
       transform="matrix(1.1147702,0,0,1.1147702,-31.893192,-31.899801)"><circle
         style="display:inline;fill:#f6ffd5;stroke:#1a1a1a;stroke-width:0.5;stroke-dasharray:none;stroke-opacity:1"
         id="path1086"
         cx="277.8876"
         cy="277.94519"
         r="245"
         inkscape:label="FillRaasi"
         sodipodi:insensitive="true" /><path
         id="path9488"
         style="color:#000000;display:inline;opacity:0.521481;fill:#fb0000;fill-opacity:1;stroke-width:1.10558;-inkscape-stroke:none"
         d="m 330.78764,74.874365 8.96445,-34.027661 C 299.91506,30.400446 257.08293,29.902607 215.0438,41.193966 l 9.29879,34.127923 c 35.94945,-9.654749 72.48499,-9.290782 106.44505,-0.447524 z"
         inkscape:label="Bhava1" /><path
         id="path9490"
         style="color:#000000;display:inline;opacity:0.521481;fill:#9046ff;fill-opacity:1;stroke-width:1.10558;-inkscape-stroke:none"
         d="M 425.15667,128.59377 449.96805,103.5731 C 419.83594,73.82502 382.46707,52.447751 341.89024,41.415138 l -8.96421,34.026408 c 34.65103,9.416646 66.52309,27.686104 92.23064,53.152224 z"
         inkscape:label="Bhava12" /><path
         id="path9492"
         style="color:#000000;display:inline;opacity:0.521481;fill:#000000;fill-opacity:1;stroke-width:1.10558;-inkscape-stroke:none"
         d="m 479.65502,222.30728 34.12848,-9.29893 c -1.43769,-5.27832 -3.04329,-10.54471 -4.85697,-15.78953 -12.37927,-35.79868 -32.30373,-66.88491 -57.38027,-92.09629 l -24.81911,25.02928 c 21.27346,21.52772 38.19142,48.05673 48.76335,78.6289 1.55424,4.49456 2.9307,9.00627 4.16452,13.52657 z"
         inkscape:label="Bhava11" /><path
         id="path9494"
         style="color:#000000;display:inline;opacity:0.521481;fill:#000000;fill-opacity:1;stroke-width:1.10558;-inkscape-stroke:none"
         d="m 480.10674,330.47844 34.0271,8.9646 c 10.56407,-39.67923 11.25572,-82.36789 0.23835,-124.30345 l -34.134,9.30044 c 9.38239,35.8442 8.82999,72.23563 -0.13145,106.03841 z"
         inkscape:label="Bhava10" /><path
         id="path9496"
         style="color:#000000;display:inline;opacity:0.521481;fill:#9046ff;fill-opacity:1;stroke-width:1.10558;-inkscape-stroke:none"
         d="m 426.44202,424.1318 25.02069,24.81138 c 29.62098,-29.94324 50.95854,-67.05594 62.08177,-107.36935 l -34.02586,-8.96434 c -9.50745,34.38699 -27.73774,66.00335 -53.0766,91.52231 z"
         inkscape:label="Bhava9" /><path
         id="path9498"
         style="color:#000000;display:inline;opacity:0.521481;fill:#fb0000;fill-opacity:1;stroke-width:1.10558;-inkscape-stroke:none"
         d="m 333.37653,478.32376 9.29894,34.12847 c 5.1189,-1.4053 10.22705,-2.96664 15.31425,-4.72581 35.71673,-12.35093 66.74084,-32.2133 91.92125,-57.20915 l -25.03013,-24.82004 c -21.4966,21.19312 -47.96357,38.0498 -78.45358,48.59332 -4.33684,1.49969 -8.6897,2.83196 -13.05073,4.03321 z"
         inkscape:label="Bhava8" /><path
         id="path9500"
         style="color:#000000;display:inline;opacity:0.521481;fill:#f6f9a2;fill-opacity:1;stroke-width:1.10558;-inkscape-stroke:none"
         d="m 225.79715,479.17687 -8.96486,34.02837 c 39.5281,10.33413 81.99806,10.88388 123.71178,-0.16487 l -9.29863,-34.12736 c -35.62249,9.41331 -71.79623,8.99588 -105.44829,0.26386 z"
         inkscape:label="Bhava7" /><path
         id="path9502"
         style="color:#000000;display:inline;opacity:0.521481;fill:#02f140;fill-opacity:1;stroke-width:1.10558;-inkscape-stroke:none"
         d="m 132.08375,426.23225 -24.81041,25.01983 c 30.03052,29.36422 67.1488,50.4714 107.4202,61.38903 l 8.9642,-34.0264 c -34.34601,-9.30181 -65.96826,-27.3012 -91.57399,-52.38246 z"
         inkscape:label="Bhava6" /><path
         id="path9504"
         style="color:#000000;display:inline;opacity:0.521481;fill:#f5d42b;fill-opacity:1;stroke-width:1.10558;-inkscape-stroke:none"
         d="m 77.243237,333.47329 -34.129175,9.29854 c 1.313657,4.68418 2.756435,9.35859 4.366884,14.01572 12.514948,36.19102 32.748421,67.55703 58.214034,92.91454 l 24.81177,-25.02138 c -21.66104,-21.67437 -38.881728,-48.48924 -49.589781,-79.45506 -1.350841,-3.90638 -2.56525,-7.8259 -3.673732,-11.75236 z"
         inkscape:label="Bhava5" /><path
         id="path9506"
         style="color:#000000;display:inline;opacity:0.521481;fill:#fdfdfd;fill-opacity:1;stroke-width:1.10558;-inkscape-stroke:none"
         d="m 75.804321,225.48616 -34.028914,-8.96472 c -10.216767,39.68581 -10.572225,82.3009 0.749815,124.11858 l 34.128067,-9.29824 C 66.968751,295.61419 67.190245,259.29489 75.804321,225.48616 Z"
         inkscape:label="Bhava4" /><path
         id="path9508"
         style="color:#000000;display:inline;opacity:0.521481;fill:#02f140;fill-opacity:1;stroke-width:1.10558;-inkscape-stroke:none"
         d="M 128.80381,131.05764 103.78484,106.24817 C 74.294174,136.46831 53.147963,173.84326 42.321698,214.37805 l 34.02711,8.9646 c 9.210029,-34.6103 27.247082,-66.48966 52.455002,-92.28501 z"
         inkscape:label="Bhava3" /><path
         id="path9510"
         style="color:#000000;display:inline;opacity:0.521481;fill:#f6f9a2;fill-opacity:1;stroke-width:1.10558;-inkscape-stroke:none"
         d="m 212.91256,41.78266 c -4.8437,1.347877 -9.67718,2.833303 -14.49213,4.498329 -36.27367,12.543529 -67.69932,32.841781 -93.08727,58.389281 l 25.02193,24.81161 c 21.70479,-21.74253 48.57918,-39.028324 79.62778,-49.765017 4.06437,-1.405466 8.14271,-2.66252 12.22861,-3.805733 z"
         inkscape:label="Bhava2" /></g><g
       inkscape:groupmode="layer"
       id="layer3"
       inkscape:label="GroupRaasi"
       style="display:none"><text
         xml:space="preserve"
         style="font-style:normal;font-variant:normal;font-weight:bold;font-stretch:normal;font-size:10.5833px;font-family:'Book Antiqua';-inkscape-font-specification:'Book Antiqua, Bold';font-variant-ligatures:normal;font-variant-caps:normal;font-variant-numeric:normal;font-variant-east-asian:normal;text-align:start;text-anchor:start;display:inline;fill:#070707;fill-opacity:1;stroke:#1a1a1a;stroke-width:0;stroke-dasharray:none;stroke-opacity:1"
         id="text1816"
         transform="matrix(1.1175666,0,0,1.1175666,-32.784452,-32.69551)"
         inkscape:label="TextRaasiLord"><textPath
           xlink:href="#circle1196"
           id="textPath1818"><tspan
             id="tspan1814"
             style="stroke-width:0"><tspan
   style="fill:#ffffff"
   id="tspan33960">Kuja</tspan>                                    Guru                                   <tspan
   style="fill:#ffffff"
   id="tspan34076">Shani</tspan>                                  <tspan
   style="fill:#ffffff"
   id="tspan34078">Shani</tspan>                                  Guru                                   <tspan
   style="fill:#ffffff"
   id="tspan33958">Kuja</tspan>                                  Shukra                              Budha                                  Ravi                                Chandra                               Budha                                Shukra</tspan></textPath></text><text
         xml:space="preserve"
         style="font-style:normal;font-variant:normal;font-weight:bold;font-stretch:normal;font-size:10.5833px;font-family:'Book Antiqua';-inkscape-font-specification:'Book Antiqua, Bold';font-variant-ligatures:normal;font-variant-caps:normal;font-variant-numeric:normal;font-variant-east-asian:normal;text-align:start;text-anchor:start;display:inline;fill:#000000;fill-opacity:1;stroke:#f9f6f6;stroke-width:0;stroke-dasharray:none;stroke-opacity:1"
         id="text4475"
         inkscape:label="TextRaasi"
         transform="matrix(1.1166709,0.02929624,-0.02929624,1.1166709,-24.358266,-40.601516)"><textPath
           xlink:href="#circle1492"
           id="textPath4473"><tspan
             id="tspan4471"
             style="fill:#000000;fill-opacity:1;stroke:#f9f6f6;stroke-width:0;stroke-opacity:1"><tspan
   style="fill:#ffffff"
   id="tspan33852">1. Mesha  </tspan>                              12.Meena                            <tspan
   style="fill:#ffffff"
   id="tspan34072">11.Khumba</tspan>                        <tspan
   style="fill:#ffffff"
   id="tspan34074">10.Makara</tspan>                              9.Dhanu                            <tspan
   style="fill:#ffffff"
   id="tspan33956">8.Vrischika</tspan>                                7.Tula                               6.Kanya                               5.Simha                            4.Karkataka                          3.Mithuna                           2.Vrishabha</tspan></textPath></text><g
         id="g1812"
         transform="matrix(-1.0795572,-0.28926635,0.28926635,-1.0795572,487.16782,640.76032)"
         style="display:inline"
         inkscape:label="LinesRaasi"><path
           style="display:inline;fill:none;stroke:#1a1a1a;stroke-width:0.8;stroke-dasharray:none;stroke-opacity:1"
           d="M 264.58333,19.583343 V 264.58333"
           id="path1359" /><path
           style="display:inline;fill:none;stroke:#1a1a1a;stroke-width:0.8;stroke-dasharray:none;stroke-opacity:1"
           d="M 386.7759,52.239498 264.27591,264.41571 v 0"
           id="path1410"
           sodipodi:nodetypes="ccc"
           inkscape:transform-center-x="-60.913622"
           inkscape:transform-center-y="-106.08387" /><path
           style="display:inline;fill:none;stroke:#1a1a1a;stroke-width:0.8;stroke-dasharray:none;stroke-opacity:1"
           d="m 476.49507,141.74696 -212.17621,122.5 v 0"
           id="path1472"
           sodipodi:nodetypes="ccc"
           inkscape:transform-center-x="-105.79468"
           inkscape:transform-center-y="-61.414515" /><path
           style="display:inline;fill:none;stroke:#1a1a1a;stroke-width:0.8;stroke-dasharray:none;stroke-opacity:1"
           d="m 509.44042,264.12228 -244.99999,1e-5 v 0"
           id="path1474"
           sodipodi:nodetypes="ccc"
           inkscape:transform-center-x="-122.32814"
           inkscape:transform-center-y="-0.28919077" /><path
           style="display:inline;fill:none;stroke:#1a1a1a;stroke-width:0.8;stroke-dasharray:none;stroke-opacity:1"
           d="M 476.78427,386.57509 264.60805,264.07511 v 0"
           id="path1476"
           sodipodi:nodetypes="ccc"
           inkscape:transform-center-x="-106.08388"
           inkscape:transform-center-y="60.913623" /><path
           style="display:inline;fill:none;stroke:#1a1a1a;stroke-width:0.8;stroke-dasharray:none;stroke-opacity:1"
           d="M 387.27681,476.29426 264.7768,264.11806 v 0"
           id="path1478"
           sodipodi:nodetypes="ccc"
           inkscape:transform-center-x="-61.414526"
           inkscape:transform-center-y="105.79468" /><path
           style="display:inline;fill:none;stroke:#1a1a1a;stroke-width:0.8;stroke-dasharray:none;stroke-opacity:1"
           d="m 264.90149,509.23962 -2e-5,-244.99999 v 0"
           id="path1480"
           sodipodi:nodetypes="ccc"
           inkscape:transform-center-x="-0.28920177"
           inkscape:transform-center-y="122.32814" /><path
           style="display:inline;fill:none;stroke:#1a1a1a;stroke-width:0.8;stroke-dasharray:none;stroke-opacity:1"
           d="M 142.44867,476.58348 264.94865,264.40725 v 0"
           id="path1482"
           sodipodi:nodetypes="ccc"
           inkscape:transform-center-x="60.913617"
           inkscape:transform-center-y="106.08388" /><path
           style="display:inline;fill:none;stroke:#1a1a1a;stroke-width:0.8;stroke-dasharray:none;stroke-opacity:1"
           d="M 52.729492,387.07602 264.9057,264.576 v 0"
           id="path1484"
           sodipodi:nodetypes="ccc"
           inkscape:transform-center-x="105.79468"
           inkscape:transform-center-y="61.414526" /><path
           style="display:inline;fill:none;stroke:#1a1a1a;stroke-width:0.8;stroke-dasharray:none;stroke-opacity:1"
           d="m 19.784134,264.7007 244.999996,-3e-5 v 0"
           id="path1486"
           sodipodi:nodetypes="ccc"
           inkscape:transform-center-x="122.32814"
           inkscape:transform-center-y="0.28920177" /><path
           style="display:inline;fill:none;stroke:#1a1a1a;stroke-width:0.8;stroke-dasharray:none;stroke-opacity:1"
           d="M 52.440277,142.24788 264.61651,264.74785 v 0"
           id="path1488"
           sodipodi:nodetypes="ccc"
           inkscape:transform-center-x="106.08388"
           inkscape:transform-center-y="-60.913617" /><path
           style="display:inline;fill:none;stroke:#1a1a1a;stroke-width:0.8;stroke-dasharray:none;stroke-opacity:1"
           d="m 141.94774,52.5287 122.50002,212.1762 v 0"
           id="path1490"
           sodipodi:nodetypes="ccc"
           inkscape:transform-center-x="61.414524"
           inkscape:transform-center-y="-105.79468" /></g></g><g
       inkscape:groupmode="layer"
       id="layer2"
       inkscape:label="GroupBhava2"
       style="display:none"><circle
         style="display:inline;fill:#00f6ff;fill-opacity:1;stroke:#1a1a1a;stroke-width:0.451613;stroke-dasharray:none;stroke-opacity:1"
         id="circle1095"
         cx="-295.38339"
         cy="258.7478"
         transform="rotate(-93.915638)"
         inkscape:label="FillBhava"
         r="221.29037" /><circle
         style="display:none;fill:none;stroke:#1a1a1a;stroke-width:0.250565;stroke-dasharray:none;stroke-opacity:1"
         id="circle492"
         cx="-295.39059"
         cy="259.16824"
         transform="rotate(-93.915638)"
         inkscape:label="RingBhava"
         r="122.77679" /><g
         id="g1019"
         transform="matrix(-0.89354795,-0.23942536,0.23942536,-0.89354795,450.45355,578.15276)"
         style="display:inline"
         inkscape:label="LinesBhavas"><path
           style="display:inline;fill:none;stroke:#453dd2;stroke-width:0.8;stroke-dasharray:none;stroke-opacity:1"
           d="M 263.47825,19.879447 V 264.87943"
           id="path995" /><path
           style="display:inline;fill:none;stroke:#453dd2;stroke-width:0.8;stroke-dasharray:none;stroke-opacity:1"
           d="M 385.67082,52.535602 263.17083,264.71181 v 0"
           id="path997"
           sodipodi:nodetypes="ccc"
           inkscape:transform-center-x="-60.913622"
           inkscape:transform-center-y="-106.08387" /><path
           style="display:inline;fill:none;stroke:#453dd2;stroke-width:0.8;stroke-dasharray:none;stroke-opacity:1"
           d="m 475.38999,142.04306 -212.17621,122.5 v 0"
           id="path999"
           sodipodi:nodetypes="ccc"
           inkscape:transform-center-x="-105.79468"
           inkscape:transform-center-y="-61.414515" /><path
           style="display:inline;fill:none;stroke:#453dd2;stroke-width:0.8;stroke-dasharray:none;stroke-opacity:1"
           d="m 508.33534,264.41838 -244.99999,10e-6 v 0"
           id="path1001"
           sodipodi:nodetypes="ccc"
           inkscape:transform-center-x="-122.32814"
           inkscape:transform-center-y="-0.28919077" /><path
           style="display:inline;fill:none;stroke:#453dd2;stroke-width:0.8;stroke-dasharray:none;stroke-opacity:1"
           d="M 475.67919,386.87119 263.50297,264.37121 v 0"
           id="path1003"
           sodipodi:nodetypes="ccc"
           inkscape:transform-center-x="-106.08388"
           inkscape:transform-center-y="60.913623" /><path
           style="display:inline;fill:none;stroke:#453dd2;stroke-width:0.8;stroke-dasharray:none;stroke-opacity:1"
           d="M 386.17173,476.59036 263.67172,264.41416 v 0"
           id="path1005"
           sodipodi:nodetypes="ccc"
           inkscape:transform-center-x="-61.414526"
           inkscape:transform-center-y="105.79468" /><path
           style="display:inline;fill:none;stroke:#453dd2;stroke-width:0.8;stroke-dasharray:none;stroke-opacity:1"
           d="m 263.79641,509.53572 -2e-5,-244.99999 v 0"
           id="path1007"
           sodipodi:nodetypes="ccc"
           inkscape:transform-center-x="-0.28920177"
           inkscape:transform-center-y="122.32814" /><path
           style="display:inline;fill:none;stroke:#453dd2;stroke-width:0.8;stroke-dasharray:none;stroke-opacity:1"
           d="M 141.34359,476.87958 263.84357,264.70335 v 0"
           id="path1009"
           sodipodi:nodetypes="ccc"
           inkscape:transform-center-x="60.913617"
           inkscape:transform-center-y="106.08388" /><path
           style="display:inline;fill:none;stroke:#453dd2;stroke-width:0.8;stroke-dasharray:none;stroke-opacity:1"
           d="M 51.624416,387.37212 263.80062,264.8721 v 0"
           id="path1011"
           sodipodi:nodetypes="ccc"
           inkscape:transform-center-x="105.79468"
           inkscape:transform-center-y="61.414526" /><path
           style="display:inline;fill:none;stroke:#453dd2;stroke-width:0.8;stroke-dasharray:none;stroke-opacity:1"
           d="m 18.679058,264.9968 244.999992,-3e-5 v 0"
           id="path1013"
           sodipodi:nodetypes="ccc"
           inkscape:transform-center-x="122.32814"
           inkscape:transform-center-y="0.28920177" /><path
           style="display:inline;fill:none;stroke:#453dd2;stroke-width:0.8;stroke-dasharray:none;stroke-opacity:1"
           d="M 51.335201,142.54398 263.51143,265.04395 v 0"
           id="path1015"
           sodipodi:nodetypes="ccc"
           inkscape:transform-center-x="106.08388"
           inkscape:transform-center-y="-60.913617" /><path
           style="display:inline;fill:none;stroke:#453dd2;stroke-width:0.8;stroke-dasharray:none;stroke-opacity:1"
           d="M 140.84266,52.824804 263.34268,265.001 v 0"
           id="path1017"
           sodipodi:nodetypes="ccc"
           inkscape:transform-center-x="61.414524"
           inkscape:transform-center-y="-105.79468" /></g><g
         id="g2606"
         transform="rotate(-90,278.07544,264.31012)"
         inkscape:label="LinesMidPoint"
         style="display:inline;opacity:0.223704"><path
           style="display:inline;fill:none;stroke:#1a1a1a;stroke-width:0.8;stroke-dasharray:0.8, 2.4;stroke-dashoffset:0;stroke-opacity:1"
           d="M 263.77778,19.373854 V 264.37384"
           id="path2582" /><path
           style="display:inline;fill:none;stroke:#1a1a1a;stroke-width:0.8;stroke-dasharray:0.8, 2.4;stroke-dashoffset:0;stroke-opacity:1"
           d="M 385.97035,52.030009 263.47036,264.20622 v 0"
           id="path2584"
           sodipodi:nodetypes="ccc"
           inkscape:transform-center-x="-60.913622"
           inkscape:transform-center-y="-106.08387" /><path
           style="display:inline;fill:none;stroke:#1a1a1a;stroke-width:0.8;stroke-dasharray:0.8, 2.4;stroke-dashoffset:0;stroke-opacity:1"
           d="m 475.68952,141.53747 -212.17621,122.5 v 0"
           id="path2586"
           sodipodi:nodetypes="ccc"
           inkscape:transform-center-x="-105.79468"
           inkscape:transform-center-y="-61.414515" /><path
           style="display:inline;fill:none;stroke:#1a1a1a;stroke-width:0.8;stroke-dasharray:0.8, 2.4;stroke-dashoffset:0;stroke-opacity:1"
           d="m 508.63487,263.91279 -244.99999,1e-5 v 0"
           id="path2588"
           sodipodi:nodetypes="ccc"
           inkscape:transform-center-x="-122.32814"
           inkscape:transform-center-y="-0.28919077" /><path
           style="display:inline;fill:none;stroke:#1a1a1a;stroke-width:0.8;stroke-dasharray:0.8, 2.4;stroke-dashoffset:0;stroke-opacity:1"
           d="M 475.97872,386.3656 263.8025,263.86562 v 0"
           id="path2590"
           sodipodi:nodetypes="ccc"
           inkscape:transform-center-x="-106.08388"
           inkscape:transform-center-y="60.913623" /><path
           style="display:inline;fill:none;stroke:#1a1a1a;stroke-width:0.8;stroke-dasharray:0.8, 2.4;stroke-dashoffset:0;stroke-opacity:1"
           d="M 386.47126,476.08477 263.97125,263.90857 v 0"
           id="path2592"
           sodipodi:nodetypes="ccc"
           inkscape:transform-center-x="-61.414526"
           inkscape:transform-center-y="105.79468" /><path
           style="display:inline;fill:none;stroke:#1a1a1a;stroke-width:0.8;stroke-dasharray:0.8, 2.4;stroke-dashoffset:0;stroke-opacity:1"
           d="m 264.09594,509.03013 -2e-5,-244.99999 v 0"
           id="path2594"
           sodipodi:nodetypes="ccc"
           inkscape:transform-center-x="-0.28920177"
           inkscape:transform-center-y="122.32814" /><path
           style="display:inline;fill:none;stroke:#1a1a1a;stroke-width:0.8;stroke-dasharray:0.8, 2.4;stroke-dashoffset:0;stroke-opacity:1"
           d="M 141.64312,476.37399 264.1431,264.19776 v 0"
           id="path2596"
           sodipodi:nodetypes="ccc"
           inkscape:transform-center-x="60.913617"
           inkscape:transform-center-y="106.08388" /><path
           style="display:inline;fill:none;stroke:#1a1a1a;stroke-width:0.8;stroke-dasharray:0.8, 2.4;stroke-dashoffset:0;stroke-opacity:1"
           d="M 51.923947,386.86653 264.10015,264.36651 v 0"
           id="path2598"
           sodipodi:nodetypes="ccc"
           inkscape:transform-center-x="105.79468"
           inkscape:transform-center-y="61.414526" /><path
           style="display:inline;fill:none;stroke:#1a1a1a;stroke-width:0.8;stroke-dasharray:0.8, 2.4;stroke-dashoffset:0;stroke-opacity:1"
           d="m 18.978589,264.49121 244.999991,-3e-5 v 0"
           id="path2600"
           sodipodi:nodetypes="ccc"
           inkscape:transform-center-x="122.32814"
           inkscape:transform-center-y="0.28920177" /><path
           style="display:inline;fill:none;stroke:#1a1a1a;stroke-width:0.8;stroke-dasharray:0.8, 2.4;stroke-dashoffset:0;stroke-opacity:1"
           d="M 51.634732,142.03839 263.81096,264.53836 v 0"
           id="path2602"
           sodipodi:nodetypes="ccc"
           inkscape:transform-center-x="106.08388"
           inkscape:transform-center-y="-60.913617" /><path
           style="display:inline;fill:none;stroke:#1a1a1a;stroke-width:0.8;stroke-dasharray:0.8, 2.4;stroke-dashoffset:0;stroke-opacity:1"
           d="M 141.14219,52.319211 263.64221,264.49541 v 0"
           id="path2604"
           sodipodi:nodetypes="ccc"
           inkscape:transform-center-x="61.414524"
           inkscape:transform-center-y="-105.79468" /></g><g
         inkscape:groupmode="layer"
         id="layer8"
         inkscape:label="BhavaNumber"
         style="display:inline"><text
           xml:space="preserve"
           style="font-style:normal;font-variant:normal;font-weight:bold;font-stretch:normal;font-size:16.9333px;font-family:'Book Antiqua';-inkscape-font-specification:'Book Antiqua, Bold';font-variant-ligatures:normal;font-variant-caps:normal;font-variant-numeric:normal;font-variant-east-asian:normal;display:inline;fill:#000000;stroke:#ffffff;stroke-width:0.3"
           x="273.38791"
           y="154.51291"
           id="text509"><tspan
             sodipodi:role="line"
             id="tspan507"
             style="font-style:normal;font-variant:normal;font-weight:bold;font-stretch:normal;font-size:16.9333px;font-family:'Book Antiqua';-inkscape-font-specification:'Book Antiqua, Bold';font-variant-ligatures:normal;font-variant-caps:normal;font-variant-numeric:normal;font-variant-east-asian:normal;stroke-width:0.3"
             x="273.38791"
             y="154.51291">1</tspan></text><text
           xml:space="preserve"
           style="font-style:normal;font-variant:normal;font-weight:bold;font-stretch:normal;font-size:16.9333px;font-family:'Book Antiqua';-inkscape-font-specification:'Book Antiqua, Bold';font-variant-ligatures:normal;font-variant-caps:normal;font-variant-numeric:normal;font-variant-east-asian:normal;display:inline;fill:#000000;stroke:#ffffff;stroke-width:0.3"
           x="208.06886"
           y="171.12854"
           id="text517"><tspan
             sodipodi:role="line"
             id="tspan519"
             x="208.06886"
             y="171.12854">2</tspan></text><text
           xml:space="preserve"
           style="font-style:normal;font-variant:normal;font-weight:bold;font-stretch:normal;font-size:16.9333px;font-family:'Book Antiqua';-inkscape-font-specification:'Book Antiqua, Bold';font-variant-ligatures:normal;font-variant-caps:normal;font-variant-numeric:normal;font-variant-east-asian:normal;display:inline;fill:#000000;stroke:#ffffff;stroke-width:0.3"
           x="162.85405"
           y="221.22745"
           id="text523"><tspan
             sodipodi:role="line"
             id="tspan525"
             x="162.85405"
             y="221.22745">3</tspan></text><text
           xml:space="preserve"
           style="font-style:normal;font-variant:normal;font-weight:bold;font-stretch:normal;font-size:16.9333px;font-family:'Book Antiqua';-inkscape-font-specification:'Book Antiqua, Bold';font-variant-ligatures:normal;font-variant-caps:normal;font-variant-numeric:normal;font-variant-east-asian:normal;display:inline;fill:#000000;stroke:#ffffff;stroke-width:0.3"
           x="147.8735"
           y="283.51385"
           id="text529"><tspan
             sodipodi:role="line"
             id="tspan531"
             x="147.8735"
             y="283.51385">4</tspan></text><text
           xml:space="preserve"
           style="font-style:normal;font-variant:normal;font-weight:bold;font-stretch:normal;font-size:16.9333px;font-family:'Book Antiqua';-inkscape-font-specification:'Book Antiqua, Bold';font-variant-ligatures:normal;font-variant-caps:normal;font-variant-numeric:normal;font-variant-east-asian:normal;display:inline;fill:#000000;stroke:#ffffff;stroke-width:0.3"
           x="163.91074"
           y="347.09232"
           id="text535"><tspan
             sodipodi:role="line"
             id="tspan537"
             x="163.91074"
             y="347.09232">5</tspan></text><text
           xml:space="preserve"
           style="font-style:normal;font-variant:normal;font-weight:bold;font-stretch:normal;font-size:16.9333px;font-family:'Book Antiqua';-inkscape-font-specification:'Book Antiqua, Bold';font-variant-ligatures:normal;font-variant-caps:normal;font-variant-numeric:normal;font-variant-east-asian:normal;display:inline;fill:#000000;stroke:#ffffff;stroke-width:0.3"
           x="210.17709"
           y="394.98703"
           id="text619"><tspan
             sodipodi:role="line"
             id="tspan621"
             x="210.17709"
             y="394.98703">6</tspan></text><text
           xml:space="preserve"
           style="font-style:normal;font-variant:normal;font-weight:bold;font-stretch:normal;font-size:16.9333px;font-family:'Book Antiqua';-inkscape-font-specification:'Book Antiqua, Bold';font-variant-ligatures:normal;font-variant-caps:normal;font-variant-numeric:normal;font-variant-east-asian:normal;display:inline;fill:#000000;stroke:#ffffff;stroke-width:0.3"
           x="273.03888"
           y="411.60751"
           id="text625"><tspan
             sodipodi:role="line"
             id="tspan627"
             x="273.03888"
             y="411.60751">7</tspan></text><text
           xml:space="preserve"
           style="font-style:normal;font-variant:normal;font-weight:bold;font-stretch:normal;font-size:16.9333px;font-family:'Book Antiqua';-inkscape-font-specification:'Book Antiqua, Bold';font-variant-ligatures:normal;font-variant-caps:normal;font-variant-numeric:normal;font-variant-east-asian:normal;display:inline;fill:#000000;stroke:#ffffff;stroke-width:0.3"
           x="337.19955"
           y="395.73706"
           id="text631"><tspan
             sodipodi:role="line"
             id="tspan633"
             x="337.19955"
             y="395.73706">8</tspan></text><text
           xml:space="preserve"
           style="font-style:normal;font-variant:normal;font-weight:bold;font-stretch:normal;font-size:16.9333px;font-family:'Book Antiqua';-inkscape-font-specification:'Book Antiqua, Bold';font-variant-ligatures:normal;font-variant-caps:normal;font-variant-numeric:normal;font-variant-east-asian:normal;display:inline;fill:#000000;stroke:#ffffff;stroke-width:0.3"
           x="385.00381"
           y="347.15021"
           id="text637"><tspan
             sodipodi:role="line"
             id="tspan639"
             x="385.00381"
             y="347.15021">9</tspan></text><text
           xml:space="preserve"
           style="font-style:normal;font-variant:normal;font-weight:bold;font-stretch:normal;font-size:16.9333px;font-family:'Book Antiqua';-inkscape-font-specification:'Book Antiqua, Bold';font-variant-ligatures:normal;font-variant-caps:normal;font-variant-numeric:normal;font-variant-east-asian:normal;display:inline;fill:#000000;stroke:#ffffff;stroke-width:0.3"
           x="400.98602"
           y="283.92432"
           id="text643"><tspan
             sodipodi:role="line"
             id="tspan645"
             x="400.98602"
             y="283.92432">10</tspan></text><text
           xml:space="preserve"
           style="font-style:normal;font-variant:normal;font-weight:bold;font-stretch:normal;font-size:16.9333px;font-family:'Book Antiqua';-inkscape-font-specification:'Book Antiqua, Bold';font-variant-ligatures:normal;font-variant-caps:normal;font-variant-numeric:normal;font-variant-east-asian:normal;display:inline;fill:#000000;stroke:#ffffff;stroke-width:0.3"
           x="385.01315"
           y="217.69493"
           id="text649"><tspan
             sodipodi:role="line"
             id="tspan651"
             x="385.01315"
             y="217.69493">11</tspan></text><text
           xml:space="preserve"
           style="font-style:normal;font-variant:normal;font-weight:bold;font-stretch:normal;font-size:16.9333px;font-family:'Book Antiqua';-inkscape-font-specification:'Book Antiqua, Bold';font-variant-ligatures:normal;font-variant-caps:normal;font-variant-numeric:normal;font-variant-east-asian:normal;display:inline;fill:#000000;stroke:#ffffff;stroke-width:0.3"
           x="336.85898"
           y="169.47952"
           id="text655"><tspan
             sodipodi:role="line"
             id="tspan657"
             x="336.85898"
             y="169.47952">12</tspan></text></g></g><g
       inkscape:groupmode="layer"
       id="layer5"
       inkscape:label="GroupBhava1"
       style="display:none"><path
         id="circle924"
         style="color:#000000;display:inline;opacity:1;fill:#fbfbfb;fill-opacity:1;-inkscape-stroke:none"
         d="m 325.76647,94.178325 8.10832,-30.777943 c -36.0325,-9.448617 -74.77406,-9.898911 -112.79836,0.314098 l 8.41073,30.868629 c 32.5162,-8.732698 65.56251,-8.40349 96.27931,-0.404784 z"
         inkscape:label="Bhava1" /><path
         id="path1085"
         style="color:#000000;display:inline;opacity:1;fill:#6c6c6c;fill-opacity:1;-inkscape-stroke:none"
         d="m 411.12305,142.76741 22.44183,-22.63114 C 406.31046,93.229195 372.5104,73.893503 335.80875,63.91453 l -8.1081,30.776809 c 31.34177,8.517331 60.16998,25.042021 83.4224,48.076071 z"
         inkscape:label="Bhava12" /><path
         id="path1081"
         style="color:#000000;display:inline;opacity:1;fill:#ff0000;fill-opacity:1;-inkscape-stroke:none"
         d="m 460.41668,227.53107 30.86913,-8.41087 c -1.30038,-4.77422 -2.75264,-9.53766 -4.39311,-14.28159 -11.19702,-32.37982 -29.21865,-60.49725 -51.90033,-83.30089 l -22.44883,22.63893 c 19.2418,19.47177 34.54406,43.46721 44.10635,71.11966 1.4058,4.06533 2.65081,8.14615 3.76679,12.23476 z"
         inkscape:label="Bhava11" /><path
         id="path1077"
         style="color:#000000;display:inline;opacity:1;fill:#6c6c6c;fill-opacity:1;-inkscape-stroke:none"
         d="m 460.82526,325.37164 30.77744,8.10846 c 9.55518,-35.88978 10.18077,-74.50157 0.21558,-112.43219 l -30.87412,8.41223 c 8.48635,32.421 7.98671,65.33696 -0.1189,95.9115 z"
         inkscape:label="Bhava10" /><path
         id="path1073"
         style="color:#000000;display:inline;opacity:1;fill:#ffffff;fill-opacity:1;-inkscape-stroke:none"
         d="m 412.28565,410.0809 22.63115,22.44183 c 26.79211,-27.08359 46.09189,-60.65195 56.15282,-97.11533 l -30.77631,-8.10823 c -8.59947,31.10296 -25.08873,59.69988 -48.00766,82.78173 z"
         inkscape:label="Bhava9" /><path
         id="path1069"
         style="color:#000000;display:inline;opacity:1;fill:#6c6c6c;fill-opacity:1;-inkscape-stroke:none"
         d="m 328.10812,459.0974 8.41087,30.86913 c 4.63003,-1.2711 9.25034,-2.68333 13.8517,-4.27449 32.3057,-11.17139 60.36694,-29.13685 83.14257,-51.74555 l -22.6397,-22.44967 c -19.44362,19.16913 -43.38294,34.41596 -70.96108,43.95255 -3.92267,1.35647 -7.85982,2.5615 -11.80436,3.64803 z"
         inkscape:label="Bhava8" /><path
         id="path1065"
         style="color:#000000;display:inline;opacity:1;fill:#f90000;fill-opacity:1;-inkscape-stroke:none"
         d="m 230.80281,459.86904 -8.10869,30.77858 c 35.75307,9.3472 74.16706,9.84444 111.89702,-0.14912 l -8.41059,-30.86812 c -32.22046,8.51431 -64.93953,8.13675 -95.37774,0.23866 z"
         inkscape:label="Bhava7" /><path
         id="path1061"
         style="color:#000000;display:inline;opacity:1;fill:#6c6c6c;fill-opacity:1;-inkscape-stroke:none"
         d="m 146.03925,411.98074 -22.44096,22.63038 c 27.16254,26.55987 60.73594,45.65128 97.16133,55.52625 l 8.1081,-30.7768 c -31.06589,-8.41347 -59.66815,-24.69388 -82.82847,-47.37983 z"
         inkscape:label="Bhava6" /><path
         id="path1057"
         style="color:#000000;display:inline;opacity:1;fill:#f5f5f5;fill-opacity:1;-inkscape-stroke:none"
         d="m 96.436127,328.08048 -30.869762,8.4105 c 1.1882,4.23683 2.49319,8.46482 3.949837,12.67719 11.319742,32.73469 29.620874,61.10518 52.654468,84.04099 l 22.44219,-22.63178 c -19.59237,-19.60441 -35.16844,-43.85841 -44.85385,-71.86692 -1.221833,-3.53332 -2.320263,-7.07851 -3.322883,-10.62998 z"
         inkscape:label="Bhava5" /><path
         id="path1053"
         style="color:#000000;display:inline;opacity:1;fill:#6c6c6c;fill-opacity:1;-inkscape-stroke:none"
         d="m 95.134631,230.40635 -30.779076,-8.10856 c -9.241043,35.89572 -9.562554,74.44098 0.678205,112.26498 l 30.868761,-8.41024 C 87.142878,293.837 87.343219,260.98627 95.134631,230.40635 Z"
         inkscape:label="Bhava4" /><path
         id="path1049"
         style="color:#000000;display:inline;opacity:1;fill:#f10202;fill-opacity:1;-inkscape-stroke:none"
         d="m 143.07255,144.99597 -22.6296,-22.4401 c -26.674243,27.33404 -45.800944,61.1396 -55.593277,97.80322 l 30.777446,8.10847 c 8.330451,-31.30494 24.644921,-60.13976 47.445431,-83.47159 z"
         inkscape:label="Bhava3" /><path
         id="path1045"
         style="color:#000000;display:inline;opacity:1;fill:#6c6c6c;fill-opacity:1;-inkscape-stroke:none"
         d="m 219.14872,64.246952 c -4.38111,1.219152 -8.75298,2.562717 -13.1081,4.068729 -32.80945,11.345593 -61.23387,29.705317 -84.19722,52.812969 l 22.63228,22.44205 c 19.63194,-19.66607 43.93976,-35.30103 72.02315,-45.012346 3.67621,-1.271241 7.36506,-2.408244 11.06075,-3.442277 z"
         inkscape:label="Bhava2" /><circle
         style="display:none;fill:none;fill-opacity:1;stroke:#020202;stroke-width:0.489705;stroke-dasharray:none;stroke-opacity:1"
         id="circle34196"
         cx="-295.38339"
         cy="258.7478"
         transform="rotate(-93.915638)"
         inkscape:label="RingMidBhava"
         r="204.42348" /></g><g
       inkscape:groupmode="layer"
       id="layer9"
       inkscape:label="Aspects"
       style="display:inline"
       transform="translate(1.0416666e-6)"><path
         style="display:inline;fill:none;stroke:#0e0cf7;stroke-width:1;stroke-dasharray:4, 1;stroke-dashoffset:0;stroke-opacity:1;paint-order:fill markers stroke"
         d="M 277.47561,88.326376 89.33665,278.54619 278.30368,466.12589 466.99658,277.87657 Z"
         id="path25348"
         sodipodi:nodetypes="ccccc" /><path
         style="fill:none;fill-opacity:1;stroke:#d50a8d;stroke-width:1;stroke-dasharray:6.00001, 6.00001;stroke-dashoffset:2;stroke-opacity:1"
         d="M 277.47561,88.326376 115.76518,372.56022 441.01501,372.38052 Z"
         id="path27916"
         sodipodi:nodetypes="cccc" /><path
         style="display:none;fill:none;fill-opacity:1;stroke:#0e0cf7;stroke-width:1;stroke-dasharray:1, 3;stroke-dashoffset:2;stroke-opacity:1"
         d="M 183.06495,114.78151 115.76518,372.56022 371.45335,441.2387 442.02992,183.52329 Z"
         id="path31320"
         sodipodi:nodetypes="ccccc" /><path
         style="display:none;fill:none;fill-opacity:1;stroke:#0e0cf7;stroke-width:1;stroke-dasharray:1, 3;stroke-dashoffset:0;stroke-opacity:1"
         d="M 112.8095,184.0496 184.35328,440.68282 439.87358,371.3824 371.19345,113.15512 Z"
         id="path2155"
         sodipodi:nodetypes="ccccc" /><path
         style="opacity:0.8;fill:none;fill-opacity:1;stroke:#d50a8d;stroke-width:1;stroke-dasharray:1, 1;stroke-dashoffset:4;stroke-opacity:1;marker-start:url(#marker2599);marker-mid:url(#marker9949);marker-end:url(#marker9949)"
         d="M 372.88045,114.29825 184.35328,440.68282 371.45335,441.2387 Z"
         id="path2157"
         sodipodi:nodetypes="cccc" /><path
         style="display:inline;opacity:1;fill:none;fill-opacity:1;stroke:#f70ce7;stroke-width:1;stroke-dasharray:6, 6;stroke-dashoffset:0;stroke-opacity:1;marker-mid:url(#Diamond);marker-end:url(#marker2729)"
         d="m 112.8095,184.0496 71.54378,256.63322 282.6433,-162.80625 -24.96666,-94.35328 z"
         id="path2159"
         sodipodi:nodetypes="ccccc" /></g><g
       inkscape:groupmode="layer"
       id="layer7"
       inkscape:label="GroupQualities"
       style="display:none"><text
         xml:space="preserve"
         style="font-style:normal;font-variant:normal;font-weight:bold;font-stretch:normal;font-size:9.52979px;font-family:'Book Antiqua';-inkscape-font-specification:'Book Antiqua, Bold';font-variant-ligatures:normal;font-variant-caps:normal;font-variant-numeric:normal;font-variant-east-asian:normal;text-align:start;text-anchor:start;display:inline;fill:#000080;fill-opacity:1;stroke:#3f3f3f;stroke-width:0;stroke-dasharray:none;stroke-opacity:1"
         id="text2634"
         inkscape:label="TextBhavaQualities"
         transform="matrix(0.77648705,-0.03740037,0.03740037,0.77648705,51.749547,72.424946)"
         sodipodi:insensitive="true"><textPath
           xlink:href="#circle1492"
           id="textPath2632"
           style="font-style:normal;font-variant:normal;font-weight:bold;font-stretch:normal;font-size:9.52979px;font-family:'Book Antiqua';-inkscape-font-specification:'Book Antiqua, Bold';font-variant-ligatures:normal;font-variant-caps:normal;font-variant-numeric:normal;font-variant-east-asian:normal;fill:#000080;fill-opacity:1;stroke:#3f3f3f;stroke-width:0;stroke-opacity:1">Fiery, Dharma-Benefic         Watery, Moksha-Dual             Airy, Kaama-Malefic              Earthy, Artha-Dual             Fiery,Dharma-Benefic            Watery, Moksha-Dual             Airy, Kaama-Malefic               Earthy, Artha-Dual             Fiery, Dharma-Benefic            Watery, Moksha-Dual          Airy, Kaama-Malefic                 Earthy, Artha-Dual</textPath></text><text
         xml:space="preserve"
         style="font-style:normal;font-variant:normal;font-weight:bold;font-stretch:normal;font-size:11.3302px;font-family:'Book Antiqua';-inkscape-font-specification:'Book Antiqua, Bold';font-variant-ligatures:normal;font-variant-caps:normal;font-variant-numeric:normal;font-variant-east-asian:normal;text-align:start;text-anchor:start;display:inline;fill:#000000;fill-opacity:1;stroke:#1a1a1a;stroke-width:0;stroke-dasharray:none;stroke-opacity:1"
         id="text10287"
         inkscape:label="TextBhava2"
         transform="matrix(0.82788343,-0.06115721,0.06115721,0.82788343,30.896016,64.807664)"
         sodipodi:insensitive="true"><textPath
           xlink:href="#circle1492"
           id="textPath10285"
           style="font-style:normal;font-variant:normal;font-weight:bold;font-stretch:normal;font-size:11.3302px;font-family:'Book Antiqua';-inkscape-font-specification:'Book Antiqua, Bold';font-variant-ligatures:normal;font-variant-caps:normal;font-variant-numeric:normal;font-variant-east-asian:normal;fill:#000000;stroke-width:0">              Self,                               <tspan
   style="fill:#ffffff"
   id="tspan945">Isolation</tspan>              <tspan
   style="fill:#ffffff"
   id="tspan943">Friends, Elder Siblings</tspan>            <tspan
   style="fill:#ffffff"
   id="tspan941">Employer</tspan>                              Father                                <tspan
   style="fill:#ffffff"
   id="tspan939">in-laws</tspan>                              <tspan
   style="fill:#ffffff"
   id="tspan937">Spouse</tspan>                              <tspan
   style="fill:#ffffff"
   id="tspan935">Enemy</tspan>                               Child                                <tspan
   style="fill:#ffffff"
   id="tspan933">Mother</tspan>                <tspan
   style="fill:#ffffff"
   id="tspan931">FiL, Younger Siblings</tspan>                <tspan
   style="fill:#ffffff"
   id="tspan928">Family</tspan></textPath></text><text
         xml:space="preserve"
         style="font-style:normal;font-variant:normal;font-weight:bold;font-stretch:normal;font-size:11.3302px;font-family:'Book Antiqua';-inkscape-font-specification:'Book Antiqua, Bold';font-variant-ligatures:normal;font-variant-caps:normal;font-variant-numeric:normal;font-variant-east-asian:normal;text-align:start;text-anchor:start;display:inline;fill:#000000;fill-opacity:1;stroke:#1a1a1a;stroke-width:0;stroke-dasharray:none;stroke-opacity:1"
         id="text1968"
         inkscape:label="TextBhava1"
         transform="matrix(0.89320535,-0.06598266,0.06598266,0.89320535,11.349505,47.941728)"><textPath
           xlink:href="#circle1492"
           id="textPath1966"
           style="font-style:normal;font-variant:normal;font-weight:bold;font-stretch:normal;font-size:11.3302px;font-family:'Book Antiqua';-inkscape-font-specification:'Book Antiqua, Bold';font-variant-ligatures:normal;font-variant-caps:normal;font-variant-numeric:normal;font-variant-east-asian:normal;fill:#000000;stroke-width:0">   Body, Personality     <tspan
   style="fill:#ffffff"
   id="tspan778">Loss,Expenses, Foreign</tspan>           <tspan
   style="fill:#ffffff"
   id="tspan776">Profit, Gains</tspan>             <tspan
   style="fill:#ffffff"
   id="tspan774">Career, Profession</tspan>            Guru, Education             <tspan
   style="fill:#ffffff"
   id="tspan772">Change, Obstacles</tspan>              <tspan
   style="fill:#ffffff"
   id="tspan947">Trade, Venture</tspan>        <tspan
   style="fill:#ffffff"
   id="tspan768">Service,Debts,Disease</tspan>     Projects, Creativity            <tspan
   style="fill:#ffffff"
   id="tspan766">Comforts, Home</tspan>          <tspan
   style="fill:#ffffff"
   id="tspan764">Courage, Risktaking</tspan>        <tspan
   style="fill:#ffffff"
   id="tspan659">Finances,Wealth</tspan></textPath></text></g></g></svg>
